<svg xmlns="http://www.w3.org/2000/svg" viewBox="0 0 24 24"><path d="M3 22c-.3 0-.5-.1-.7-.3-.4-.4-.4-1 0-1.4l1.9-1.9c-1.5-2.3-.4-5.1.6-6.1l1.5-1.5c.4-.4 1-.4 1.4 0l.3.3 1.3-1.3c.4-.4 1-.4 1.4 0s.4 1 0 1.4l-1.3 1.3 2.1 2.1 1.3-1.3c.4-.4 1-.4 1.4 0s.4 1 0 1.4L12.9 16l.3.3c.4.4.4 1 0 1.4l-1.5 1.5c-1 1-3.8 2.2-6.1.6l-1.9 1.9c-.2.2-.4.3-.7.3zm3.2-4.2c.6.6 1.4.9 2.4.8.9-.1 1.5-.6 1.7-.8l.8-.8L7 12.9l-.8.8c-.2.2-.6.9-.7 1.7-.2 1 .1 1.8.7 2.4zM17 13.5c-.3 0-.5-.1-.7-.3l-5.5-5.5c-.4-.4-.4-1 0-1.4l1.5-1.5c1-1 3.8-2.2 6.1-.6l1.9-1.9c.4-.4 1-.4 1.4 0s.4 1 0 1.4l-1.9 1.9c1.5 2.3.4 5.1-.6 6.1l-1.5 1.5c-.2.2-.4.3-.7.3zM12.9 7l4.1 4.1.8-.8c.2-.2.6-.9.8-1.7.1-.9-.1-1.7-.8-2.4-.6-.6-1.4-.9-2.4-.7-.9.1-1.5.6-1.7.7l-.8.8z"/></svg>