<svg xmlns="http://www.w3.org/2000/svg" viewBox="0 0 24 24"><g><path d="M21,9c-0.6,0-1,0.4-1,1v9.5c0,0.3-0.2,0.5-0.5,0.5h-15C4.2,20,4,19.8,4,19.5v-15C4,4.2,4.2,4,4.5,4H15
		c0.6,0,1-0.4,1-1s-0.4-1-1-1H4.5C3.1,2,2,3.1,2,4.5v15C2,20.9,3.1,22,4.5,22h15c1.4,0,2.5-1.1,2.5-2.5V10C22,9.4,21.6,9,21,9z"/><path d="M8.6,9.2C8.2,8.9,7.6,8.9,7.2,9.4c-0.3,0.4-0.3,1.1,0.2,1.4l5,4c0.2,0.1,0.4,0.2,0.6,0.2c0,0,0.1,0,0.1,0
		c0.3,0,0.5-0.2,0.7-0.4l7.5-10.5c0.3-0.4,0.2-1.1-0.2-1.4c-0.4-0.3-1.1-0.2-1.4,0.2l-6.9,9.6L8.6,9.2z"/></g></svg>