<svg xmlns="http://www.w3.org/2000/svg" viewBox="0 0 24 24"><path d="M19.5,2h-15C3.1,2,2,3.1,2,4.5v15C2,20.9,3.1,22,4.5,22h15c1.4,0,2.5-1.1,2.5-2.5v-15C22,3.1,20.9,2,19.5,2z
	 M20,19.5c0,0.3-0.2,0.5-0.5,0.5h-15C4.2,20,4,19.8,4,19.5v-15C4,4.2,4.2,4,4.5,4h15C19.8,4,20,4.2,20,4.5V19.5z"/><path d="M13.4,12l2.3-2.3c0.4-0.4,0.4-1,0-1.4c-0.4-0.4-1-0.4-1.4,0L12,10.6L9.7,8.3c-0.4-0.4-1-0.4-1.4,0s-0.4,1,0,1.4
	l2.3,2.3l-2.3,2.3c-0.4,0.4-0.4,1,0,1.4C8.5,15.9,8.7,16,9,16c0.3,0,0.5-0.1,0.7-0.3l2.3-2.3l2.3,2.3c0.2,0.2,0.5,0.3,0.7,0.3
	s0.5-0.1,0.7-0.3c0.4-0.4,0.4-1,0-1.4L13.4,12z"/></svg>