<svg xmlns="http://www.w3.org/2000/svg" viewBox="0 0 24 24"><g><path d="M19.5,17V4c0-1.4-1.1-2.5-2.5-2.5H4C2.6,1.5,1.5,2.6,1.5,4v13c0,1.4,1.1,2.5,2.5,2.5h13
		C18.4,19.5,19.5,18.4,19.5,17z M3.5,17V4c0-0.3,0.2-0.5,0.5-0.5h13c0.3,0,0.5,0.2,0.5,0.5v13c0,0.3-0.2,0.5-0.5,0.5H4
		C3.7,17.5,3.5,17.3,3.5,17z"/><path d="M22,5.5c-0.6,0-1,0.4-1,1V21H6.5c-0.6,0-1,0.4-1,1s0.4,1,1,1H21c1.1,0,2-0.9,2-2V6.5C23,5.9,22.6,5.5,22,5.5z"/><path d="M14.2,6.8c-0.4-0.4-1-0.4-1.4,0l-2.3,2.3L8.2,6.8c-0.4-0.4-1-0.4-1.4,0s-0.4,1,0,1.4l2.3,2.3l-2.3,2.3
		c-0.4,0.4-0.4,1,0,1.4c0.2,0.2,0.5,0.3,0.7,0.3c0.3,0,0.5-0.1,0.7-0.3l2.3-2.3l2.3,2.3c0.2,0.2,0.5,0.3,0.7,0.3s0.5-0.1,0.7-0.3
		c0.4-0.4,0.4-1,0-1.4l-2.3-2.3l2.3-2.3C14.6,7.8,14.6,7.2,14.2,6.8z"/></g></svg>