<svg xmlns="http://www.w3.org/2000/svg" viewBox="0 0 24 24"><path d="M12 2.5c-6.1 0-11 4.9-11 11 0 3 1 5.8 2.8 7.7.2.2.5.3.7.3h15c.3 0 .5-.1.7-.3 1.8-1.9 2.8-4.7 2.8-7.7 0-6.1-4.9-11-11-11zm7 17H5c-1.2-1.5-2-3.7-2-6 0-5 4-9 9-9s9 4 9 9c0 2.3-.7 4.5-2 6z"/><path d="M13 12.2V10c0-.6-.4-1-1-1s-1 .4-1 1v2.2c-1.2.4-2 1.5-2 2.8 0 1.7 1.3 3 3 3s3-1.3 3-3c0-1.3-.8-2.4-2-2.8zM12 16c-.6 0-1-.4-1-1s.4-1 1-1 1 .4 1 1-.4 1-1 1zm0-8c.6 0 1-.4 1-1V6c0-.6-.4-1-1-1s-1 .4-1 1v1c0 .6.4 1 1 1zm-6.5 5h-1c-.6 0-1 .4-1 1s.4 1 1 1h1c.6 0 1-.4 1-1s-.4-1-1-1zm1.7-4.7c-.4-.4-1-.4-1.4 0s-.4 1 0 1.4l.7.7c.2.2.5.3.7.3s.5-.1.7-.3c.4-.4.4-1 0-1.4l-.7-.7zM19.5 13h-1c-.6 0-1 .4-1 1s.4 1 1 1h1c.6 0 1-.4 1-1s-.4-1-1-1zm-1.1-3.3c.4-.4.4-1 0-1.4s-1-.4-1.4 0l-.7.7c-.4.4-.4 1 0 1.4.2.2.5.3.7.3s.5-.1.7-.3l.7-.7z"/></svg>