<svg xmlns="http://www.w3.org/2000/svg" viewBox="0 0 24 24"><path d="M18 9.6V6c0-2.4-4.4-3.5-8.5-3.5S1 3.6 1 6v12c0 2.4 4.4 3.5 8.5 3.5 1.8 0 3.5-.2 4.9-.6.8.4 1.7.6 2.6.6 3.3 0 6-2.7 6-6 0-3-2.2-5.4-5-5.9zm-2.9.2s-.1 0-.1.1c-.3.1-.5.2-.7.3 0 0-.1 0-.1.1-.3.1-.5.3-.7.5l-.1.1c-.1.1-.3.2-.4.4-1 .2-2.1.3-3.3.3-4.1 0-6.3-1.1-6.5-1.5V8.4c1.7.8 4.1 1.1 6.5 1.1s4.8-.4 6.5-1.1v1.2h-.1c-.5.1-.8.1-1 .2zM11 15.4c-.5 0-1 .1-1.5.1-4.1 0-6.3-1.1-6.5-1.5v-1.6c1.7.8 4.1 1.1 6.5 1.1.6 0 1.3 0 1.9-.1-.3.7-.4 1.3-.4 2zM9.5 4.5c4 0 6.2 1 6.5 1.5-.3.5-2.4 1.5-6.5 1.5S3.2 6.4 3 6c.2-.4 2.4-1.5 6.5-1.5zm0 15c-4.2 0-6.3-1.1-6.5-1.5v-1.6c1.7.8 4.1 1.1 6.5 1.1.6 0 1.2 0 1.8-.1.1.2.1.3.2.5 0 .1.1.2.1.3.1.1.1.3.2.4 0 .1.1.2.1.2.1.1.2.2.3.4l.1.1c-.8.1-1.8.2-2.8.2zm7.5 0c-.7 0-1.4-.2-2-.5-1.1-.6-1.8-1.6-2-2.8 0-.2-.1-.5-.1-.7 0-1 .4-1.9 1-2.7.8-.8 1.8-1.3 3-1.3 2.2 0 4 1.8 4 4s-1.7 4-3.9 4z"/><path d="M19 14.5h-1v-1c0-.6-.4-1-1-1s-1 .4-1 1v2c0 .6.4 1 1 1h2c.6 0 1-.4 1-1s-.4-1-1-1z"/></svg>