<svg xmlns="http://www.w3.org/2000/svg" viewBox="0 0 24 24"><path d="M23.5 9.2v-.1c0-.1 0-.2-.1-.3v-.2L19.5 2c0-.1-.1-.2-.2-.2h-.1c-.1-.1-.2-.1-.3-.2-.1 0-.2-.1-.3-.1H5.3c-.1 0-.2 0-.3.1-.1 0-.2.1-.3.2-.1 0-.2.1-.2.2L.6 8.7v.2c0 .1 0 .2-.1.3v.1c0 .1 0 .2.1.3 0 .1.1.2.1.2l10.5 12.3c.1.1.2.1.3.2h.1c.1 0 .2.1.4.1s.3 0 .4-.1h.1c.1-.1.2-.1.3-.2L23.3 9.8c.1-.1.1-.2.1-.2.1-.2.1-.3.1-.4zM5.1 4.9l1.1 3.3h-3l1.9-3.3zm9.8 5.2L12 18.5l-2.9-8.3h5.8zm-5.4-2L12 4.3l2.5 3.8h-5zm4.3-4.6h3.4L16 6.9l-2.2-3.4zM7.9 6.9 6.7 3.5h3.4L7.9 6.9zm-1 3.2 2.3 6.6-5.6-6.6h3.3zm10.2 0h3.3l-5.6 6.6 2.3-6.6zm.7-2 1.1-3.3 1.9 3.3h-3z"/></svg>