<svg xmlns="http://www.w3.org/2000/svg" viewBox="0 0 48 48"><path d="M24 46c-.3 0-.5-.1-.8-.2-.2-.1-.4-.2-.6-.4l-6-6c-.8-.8-.8-2 0-2.8.8-.8 2-.8 2.8 0l2.6 2.6V26H8.8l2.6 2.6c.8.8.8 2 0 2.8-.8.8-2 .8-2.8 0l-6-6c-.2-.2-.3-.4-.4-.6-.1-.3-.2-.5-.2-.8v-.1c0-.3.1-.5.2-.7.1-.2.2-.5.4-.7l6-6c.8-.8 2-.8 2.8 0s.8 2 0 2.8L8.8 22H22V8.8l-2.6 2.6c-.8.8-2 .8-2.8 0-.8-.8-.8-2 0-2.8l6-6c.2-.2.4-.3.6-.4.5-.2 1.1-.2 1.5 0 .2.1.4.2.6.4l6 6c.8.8.8 2 0 2.8-.8.8-2 .8-2.8 0L26 8.8V22h13.2l-2.6-2.6c-.8-.8-.8-2 0-2.8s2-.8 2.8 0l6 6c.2.2.3.4.4.7.1.2.1.5.2.7v.1c0 .3-.1.5-.2.7-.1.2-.2.4-.4.6l-6 6c-.8.8-2 .8-2.8 0s-.8-2 0-2.8l2.6-2.6H26v13.2l2.6-2.6c.8-.8 2-.8 2.8 0 .8.8.8 2 0 2.8l-6 6c-.2.2-.4.3-.6.4-.3.1-.5.2-.8.2z"/></svg>