<svg xmlns="http://www.w3.org/2000/svg" viewBox="0 0 24 24"><path d="M19 9.4C18.7 5.8 15.7 3 12 3 8.4 3 5.4 5.8 5 9.4c-2.4.8-4 3.1-4 5.6 0 3.3 2.7 6 6 6 .6 0 1.1-.1 1.6-.2.5-.2.8-.7.7-1.2-.1-.5-.7-.8-1.2-.7-.4 0-.7.1-1.1.1-2.2 0-4-1.8-4-4 0-1.9 1.3-3.5 3.1-3.9.2 0 .3-.2.5-.3.2-.2.4-.5.4-.8 0-2.8 2.2-5 5-5s5 2.2 5 5v.2c0 .4.3.8.8.9 1.8.4 3.1 2 3.1 3.9 0 2.2-1.8 4-4 4-.4 0-.7-.1-1.1-.2-.5-.2-1.1.2-1.2.7-.2.5.2 1.1.7 1.2.5.2 1.1.2 1.6.2 3.3 0 6-2.7 6-6 0-2.4-1.6-4.6-3.9-5.5z"/><path d="M16.3 14.3c-.4-.4-1-.4-1.4 0L13 16.1V10c0-.6-.4-1-1-1s-1 .4-1 1v6.1l-1.8-1.8c-.4-.4-1-.4-1.4 0-.4.4-.4 1 0 1.4l3.5 3.5c.2.2.5.3.7.3.3 0 .5-.1.7-.3l3.6-3.5c.4-.4.4-1 0-1.4z"/></svg>