<svg xmlns="http://www.w3.org/2000/svg" viewBox="0 0 24 24"><path d="M19.5 2h-15C3.1 2 2 3.1 2 4.5v15C2 20.9 3.1 22 4.5 22h15c1.4 0 2.5-1.1 2.5-2.5v-15C22 3.1 20.9 2 19.5 2zm.5 17.5c0 .3-.2.5-.5.5h-15c-.3 0-.5-.2-.5-.5v-15c0-.3.2-.5.5-.5h15c.3 0 .5.2.5.5v15z"/><path d="M17.5 6h-2.3c-.4 0-.7.5-.4.9l2.3 2.3c.4.3.9 0 .9-.4V6.5c0-.3-.2-.5-.5-.5zM8.8 6H6.5c-.3 0-.5.2-.5.5v2.3c0 .4.5.7.9.4l2.3-2.3c.3-.4 0-.9-.4-.9zm-1.9 8.9c-.4-.4-.9-.1-.9.3v2.3c0 .3.2.5.5.5h2.3c.4 0 .7-.5.4-.9l-2.3-2.2zm10.2 0-2.3 2.3c-.3.3-.1.9.4.9h2.3c.3 0 .5-.2.5-.5v-2.3c0-.5-.5-.8-.9-.4z"/></svg>