<svg xmlns="http://www.w3.org/2000/svg" viewBox="0 0 24 24"><path d="m20.9 6.6-.1-.1c0-.1-.1-.1-.1-.2l-4.5-5c-.1-.2-.4-.3-.7-.3H5c-1.1 0-2 .9-2 2v18c0 1.1.9 2 2 2h14c1.1 0 2-.9 2-2V7c0-.1 0-.3-.1-.4zM17.8 6H16V4.1L17.8 6zM5 21V3h9v4c0 .6.4 1 1 1h4v13H5z"/><path d="M14.2 11.3c-.4-.4-1-.4-1.4 0s-.4 1 0 1.4l1.8 1.8-1.8 1.8c-.4.4-.4 1 0 1.4.2.2.5.3.7.3s.5-.1.7-.3l2.5-2.5c.4-.4.4-1 0-1.4l-2.5-2.5zm-3 0c-.4-.4-1-.4-1.4 0l-2.5 2.5c-.4.4-.4 1 0 1.4l2.5 2.5c.2.2.5.3.7.3s.5-.1.7-.3c.4-.4.4-1 0-1.4l-1.8-1.8 1.8-1.8c.4-.4.4-1 0-1.4z"/></svg>