<svg xmlns="http://www.w3.org/2000/svg" viewBox="0 0 24 24"><path d="M5.4 4h2.1c.6 0 1-.4 1-1s-.4-1-1-1H3c-.1 0-.3 0-.4.1-.1 0-.2.1-.3.2v.1c-.1 0-.2.1-.2.2-.1.1-.1.2-.1.3v4.6c0 .6.4 1 1 1s1-.4 1-1V5.4l3.3 3.3c.2.2.4.2.7.2.3 0 .5-.1.7-.3.4-.4.4-1 0-1.4L5.4 4zm1.9 11.3L4 18.6v-2.1c0-.6-.4-1-1-1s-1 .4-1 1V21c0 .6.4 1 1 1h4.5c.6 0 1-.4 1-1s-.4-1-1-1H5.4l3.3-3.3c.4-.4.4-1 0-1.4-.4-.4-1-.4-1.4 0zM21 2h-4.5c-.6 0-1 .4-1 1s.4 1 1 1h2l-3.2 3.2c-.4.4-.4 1 0 1.4.2.2.5.3.7.3s.5-.1.7-.3L20 5.4v2.1c0 .6.4 1 1 1s1-.4 1-1V3c0-.6-.4-1-1-1zm0 13.5c-.6 0-1 .4-1 1v2l-3.2-3.2c-.4-.4-1-.4-1.4 0s-.4 1 0 1.4l3.3 3.3h-2.1c-.6 0-1 .4-1 1s.4 1 1 1H21c.6 0 1-.4 1-1v-4.5c0-.6-.4-1-1-1z"/></svg>