<svg xmlns="http://www.w3.org/2000/svg" viewBox="0 0 24 24"><path d="M4.3 7.9c-.9-1-.9-2.5.1-3.5s2.5-1 3.5-.1l4.6 4.6c.5.5.7 1.1.7 1.7 0 .7-.3 1.3-.8 1.8-.4.4-.4 1 0 1.4.2.2.5.3.7.3s.5-.1.7-.3c.8-.8 1.3-2 1.3-3.1 0-1.2-.4-2.3-1.3-3.1L9.3 2.9C7.5 1.2 4.7 1.2 3 3c-1.8 1.7-1.8 4.6-.1 6.3l4 4c.2.2.5.3.7.3s.5-.1.7-.3c.4-.4.4-1 0-1.4l-4-4z"/><path d="m21.1 14.8-4-4c-.4-.4-1-.4-1.4 0s-.4 1 0 1.4l4 4c.9.9.9 2.5-.1 3.5s-2.5 1-3.5.1l-4.6-4.6c-.5-.5-.7-1.1-.7-1.7 0-.7.3-1.3.8-1.8.4-.4.4-1 0-1.4s-1-.4-1.4 0c-.8.8-1.3 2-1.3 3.1 0 1.2.4 2.3 1.3 3.1l4.6 4.6c.8.8 2 1.3 3.1 1.3 1.2 0 2.3-.4 3.2-1.3 1.7-1.8 1.7-4.6 0-6.3z"/></svg>