<svg xmlns="http://www.w3.org/2000/svg" viewBox="0 0 24 24"><path d="M23 12c0-6.1-4.9-11-11-11S1 5.9 1 12c0 3 1.2 5.8 3.2 7.8 0 .1.1.1.2.2 2 1.9 4.6 3.1 7.6 3.1s5.7-1.2 7.7-3.1c0 0 .1 0 .1-.1 2-2.1 3.2-4.9 3.2-7.9zM12 3c5 0 9 4 9 9 0 1.9-.6 3.6-1.5 5-.9-2.1-3.1-3.5-5.5-3.5h-4c-2.4 0-4.5 1.4-5.5 3.5-1-1.4-1.5-3.2-1.5-5 0-5 4-9 9-9zM6.1 18.8c.3-1.9 2-3.3 3.9-3.3h4c1.9 0 3.6 1.4 3.9 3.3-1.6 1.4-3.6 2.2-5.9 2.2-2.3 0-4.3-.8-5.9-2.2z"/><path d="M12 12.5c1.9 0 3.5-1.6 3.5-3.5S13.9 5.5 12 5.5 8.5 7.1 8.5 9s1.6 3.5 3.5 3.5zm0-5c.8 0 1.5.7 1.5 1.5s-.7 1.5-1.5 1.5-1.5-.7-1.5-1.5.7-1.5 1.5-1.5z"/></svg>