<svg xmlns="http://www.w3.org/2000/svg" viewBox="0 0 24 24"><path d="M18.4 16.4c-.3.4-.6.8-1 1.2s-.8.7-1.2 1c-.4.3-.9.5-1.4.7-1 .4-2 .6-3.1.6-4.4 0-8-3.6-8-8 0-.6-.4-1-1-1s-1 .4-1 1v8c0 .6.4 1 1 1s1-.4 1-1v-2c1.8 2.4 4.7 4 8 4 1.3 0 2.6-.3 3.8-.8.6-.3 1.2-.6 1.7-.9.5-.4 1.1-.8 1.5-1.2s.9-1 1.2-1.5c.3-.5.2-1.1-.3-1.4-.3-.2-.9-.1-1.2.3zM20.8 3c-.6 0-1 .4-1 1v2c-1.8-2.4-4.7-4-8-4-1.3 0-2.6.3-3.8.8-.7.2-1.3.5-1.8.9-.6.3-1.1.8-1.5 1.2-.5.5-.9 1-1.2 1.5-.4.5-.2 1.1.2 1.4.5.3 1.1.2 1.4-.2.3-.4.6-.8 1-1.2.4-.4.8-.7 1.2-1 .4-.3.9-.5 1.4-.7 1-.4 2-.6 3.1-.6 4.4 0 8 3.6 8 8 0 .6.4 1 1 1s1-.4 1-1V4c0-.6-.5-1-1-1z"/></svg>