<svg xmlns="http://www.w3.org/2000/svg" viewBox="0 0 24 24"><path d="M3 12c0-2.6 1.1-5 3-6.7V7c0 .6.4 1 1 1s1-.4 1-1V3.1c0-.1-.1-.2-.2-.3-.1-.2-.2-.3-.3-.3-.1-.1-.3-.1-.4-.2H3.3c-.6 0-1 .4-1 1s.4 1 1 1h.8C2.1 6.4 1 9.1 1 12c0 .6.4 1 1 1s1-.4 1-1zm9 9c-2.6 0-5-1.1-6.7-3H7c.6 0 1-.4 1-1s-.4-1-1-1H3.1c-.1 0-.2.1-.3.2l-.3.3c-.1.1-.1.3-.1.4v3.7c0 .6.4 1 1 1s1-.4 1-1v-.8c2 2 4.8 3.1 7.7 3.1.6 0 1-.4 1-1s-.5-.9-1.1-.9zm8.7-1.3h-.8c2-2 3.1-4.8 3.1-7.7 0-.6-.4-1-1-1s-1 .4-1 1c0 2.6-1.1 5-3 6.7V17c0-.6-.4-1-1-1s-1 .4-1 1v3.9c0 .1.1.2.2.3l.3.3c.1.1.3.1.4.1h3.7c.6 0 1-.4 1-1s-.4-.9-.9-.9zM12 3c2.6 0 5 1.1 6.7 3H17c-.6 0-1 .4-1 1s.4 1 1 1h3.9c.1 0 .2-.1.3-.2l.3-.3c.1-.1.1-.3.1-.4V3.3c0-.6-.4-1-1-1s-1 .4-1 1v.8c-2-2-4.8-3.1-7.7-3.1-.6 0-1 .4-1 1s.5 1 1.1 1z"/></svg>