<svg xmlns="http://www.w3.org/2000/svg" viewBox="0 0 24 24"><path d="M12 3v3.7c0 .2-.2.3-.5.3h-4c-.3 0-.5-.1-.5-.3V3"/><path d="m21.7 5.9-3.9-3.6s-.1-.1-.2-.1l-.1-.1c-.1-.1-.2-.1-.4-.1H4.5C3.1 2 2 3.1 2 4.5v15C2 20.9 3.1 22 4.5 22h15c1.4 0 2.5-1.1 2.5-2.5V6.6c0-.3-.1-.5-.3-.7zM11 4v2H8V4h3zm9 15.5c0 .3-.2.5-.5.5h-15c-.3 0-.5-.2-.5-.5v-15c0-.3.2-.5.5-.5H6v2.7C6 7.4 6.7 8 7.5 8h4c.8 0 1.5-.6 1.5-1.3V4h3.7L20 7v12.5z"/><path d="M17 14H7c-.6 0-1-.4-1-1s.4-1 1-1h10c.6 0 1 .4 1 1s-.4 1-1 1zm-5 4H7c-.6 0-1-.4-1-1s.4-1 1-1h5c.6 0 1 .4 1 1s-.4 1-1 1z"/></svg>