<svg xmlns="http://www.w3.org/2000/svg" viewBox="0 0 24 24"><path d="M22 1H2c-.6 0-1 .4-1 1v8c0 .6.4 1 1 1h20c.6 0 1-.4 1-1V2c0-.6-.4-1-1-1zm-1 8H3V3h18v6zm1 4H2c-.6 0-1 .4-1 1v8c0 .6.4 1 1 1h20c.6 0 1-.4 1-1v-8c0-.6-.4-1-1-1zm-1 8H3v-6h18v6z"/><path d="M5.5 7h1c.3 0 .5-.2.5-.5v-1c0-.3-.2-.5-.5-.5h-1c-.3 0-.5.2-.5.5v1c0 .3.2.5.5.5zm0 12h1c.3 0 .5-.2.5-.5v-1c0-.3-.2-.5-.5-.5h-1c-.3 0-.5.2-.5.5v1c0 .3.2.5.5.5zm4-12h1c.3 0 .5-.2.5-.5v-1c0-.3-.2-.5-.5-.5h-1c-.3 0-.5.2-.5.5v1c0 .3.2.5.5.5zm0 12h1c.3 0 .5-.2.5-.5v-1c0-.3-.2-.5-.5-.5h-1c-.3 0-.5.2-.5.5v1c0 .3.2.5.5.5z"/></svg>