<svg viewBox="0 0 1024 1024" xmlns="http://www.w3.org/2000/svg" width="200" height="200"><path d="M464.248 677.488c9.967 9.161 25.418 8.714 34.838-1.009l299.819-309.441c9.598-9.906 9.349-25.718-.558-35.316-9.906-9.598-25.718-9.349-35.316.558L463.212 641.721l34.838-1.009-181.442-166.771c-10.155-9.334-25.955-8.669-35.29 1.487-9.334 10.155-8.669 25.955 1.487 35.29l181.442 166.771zM1024 512C1024 229.23 794.77 0 512 0S0 229.23 0 512s229.23 512 512 512c117.411 0 228.826-39.669 318.768-111.313 10.789-8.594 12.568-24.307 3.974-35.097-8.594-10.789-24.307-12.568-35.097-3.974-81.176 64.662-181.644 100.433-287.646 100.433C256.817 974.049 49.95 767.183 49.95 512c0-255.182 206.866-462.049 462.049-462.049 255.182 0 462.049 206.866 462.049 462.049 0 87.493-24.334 171.337-69.578 243.961-7.294 11.708-3.716 27.111 7.992 34.405 11.708 7.294 27.111 3.716 34.405-7.992 50.146-80.493 77.132-173.475 77.132-270.374z"/></svg>