<svg xmlns="http://www.w3.org/2000/svg" viewBox="0 0 24 24"><path d="m21.9 20.6-1.1-2.5-2.8-6.5c-.2-.4-.6-.6-1-.6s-.8.2-.9.6l-1.6 3.6c-.1 0-.1-.1-.2-.1 0 0-2.7-1.1-4.8-2.4 1.8-1.9 2.8-4.7 3.2-6.1H14c.6 0 1-.4 1-1s-.4-1-1-1H9.5v-.3l-.6-1.6c-.1-.5-.7-.8-1.2-.6-.5.1-.8.7-.6 1.2l.4 1.2H3c-.6 0-1 .4-1 1s.4 1 1 1h7.7c-.4 1.3-1.2 3.4-2.5 4.7-.1 0-.2.1-.2.2-1.4-1.6-2-3.7-2-3.7-.2-.5-.7-.8-1.3-.7-.5.2-.8.7-.7 1.3 0 .1.7 2.5 2.4 4.4-1.9 1.4-3.9 2.4-3.9 2.5-.5.2-.7.8-.4 1.3.2.3.5.5.9.5.2 0 .3 0 .4-.1.2-.1 2.5-1.2 4.6-2.9 2.3 1.6 5.5 2.9 5.7 2.9h.1l-.5 1.1-1.1 2.5c-.2.5 0 1.1.5 1.3.5.2 1.1 0 1.3-.5l.9-1.9h4.4l.9 1.9c.2.4.5.6.9.6.1 0 .3 0 .4-.1.4-.1.6-.7.4-1.2zm-6.2-3.1 1.3-3 1.3 3h-2.6z"/></svg>