<svg xmlns="http://www.w3.org/2000/svg" viewBox="0 0 24 24"><path d="M18 19c.6 0 1-.4 1-1 0-3.1-2-5.7-4.8-6.7C15.3 10.6 16 9.4 16 8c0-2.2-1.8-4-4-4S8 5.8 8 8c0 1.4.7 2.6 1.8 3.3C7 12.3 5 14.9 5 18c0 .6.4 1 1 1s1-.4 1-1c0-2.8 2.2-5 5-5s5 2.2 5 5c0 .6.4 1 1 1zM12 6c1.1 0 2 .9 2 2s-.9 2-2 2-2-.9-2-2 .9-2 2-2zm10-5h-4c-.6 0-1 .4-1 1s.4 1 1 1h3v3c0 .6.4 1 1 1s1-.4 1-1V2c0-.6-.4-1-1-1zM2 7c.6 0 1-.4 1-1V3h3c.6 0 1-.4 1-1s-.4-1-1-1H2c-.6 0-1 .4-1 1v4c0 .6.4 1 1 1zm20 10c-.6 0-1 .4-1 1v3h-3c-.6 0-1 .4-1 1s.4 1 1 1h4c.6 0 1-.4 1-1v-4c0-.6-.4-1-1-1zM6 21H3v-3c0-.6-.4-1-1-1s-1 .4-1 1v4c0 .6.4 1 1 1h4c.6 0 1-.4 1-1s-.4-1-1-1z"/></svg>