<svg xmlns="http://www.w3.org/2000/svg" viewBox="0 0 24 24"><path d="M19.5 2h-15C3.1 2 2 3.1 2 4.5v15C2 20.9 3.1 22 4.5 22h15c1.4 0 2.5-1.1 2.5-2.5v-15C22 3.1 20.9 2 19.5 2zm.5 17.5c0 .3-.2.5-.5.5h-15c-.3 0-.5-.2-.5-.5v-15c0-.3.2-.5.5-.5h15c.3 0 .5.2.5.5v15z"/><path d="M6.5 11.5h4c.6 0 1-.4 1-1v-4c0-.6-.4-1-1-1h-4c-.6 0-1 .4-1 1v4c0 .6.4 1 1 1zm1-4h2v2h-2v-2zm10-2h-4c-.6 0-1 .4-1 1s.4 1 1 1h4c.6 0 1-.4 1-1s-.4-1-1-1zm0 3.5h-4c-.6 0-1 .4-1 1s.4 1 1 1h4c.6 0 1-.4 1-1s-.4-1-1-1zm0 4h-11c-.6 0-1 .4-1 1s.4 1 1 1h11c.6 0 1-.4 1-1s-.4-1-1-1zm0 3.5h-11c-.6 0-1 .4-1 1s.4 1 1 1h11c.6 0 1-.4 1-1s-.4-1-1-1z"/></svg>