<svg viewBox="0 0 1024 1024" xmlns="http://www.w3.org/2000/svg" width="200" height="200"><path d="M290.907 294.935c0-13.698-4.169-24.715-12.507-33.053s-19.355-12.507-33.053-12.507c-14.293 0-26.799 4.467-37.52 13.4-10.72 8.933-16.377 19.653-16.973 32.159 0 13.101 5.658 23.822 16.973 32.159 11.316 8.337 23.822 12.506 37.52 12.506 13.698 0 24.715-3.87 33.053-11.612 8.338-7.743 12.507-18.759 12.507-33.053zm369.829 252.806c0-8.932-4.169-17.27-12.507-25.012-8.338-7.74-19.058-11.317-32.16-10.721-9.529 0-17.866 3.871-25.012 11.616-7.145 7.74-11.018 15.781-11.614 24.117 0 9.53 3.87 17.868 11.614 25.013 7.741 7.146 16.079 11.019 25.012 11.614 13.102 0 23.821-3.572 32.16-10.72 8.338-7.146 12.507-15.782 12.507-25.906zM543.713 294.935c0-13.698-4.168-24.715-12.506-33.053-8.338-8.337-19.356-12.507-33.053-12.507-14.294 0-26.799 4.467-37.52 13.4-10.721 8.933-16.079 19.653-16.079 32.159 0 13.101 5.358 23.822 16.079 32.159 10.72 8.338 23.226 12.506 37.52 12.506 13.697 0 24.714-3.87 33.053-11.612 8.337-7.743 12.506-18.759 12.506-33.053zm316.231 252.806c0-8.932-4.467-17.27-13.4-25.012-8.933-7.74-19.654-11.317-32.159-10.721-8.933 0-16.975 3.871-24.119 11.616-7.146 7.74-11.019 15.781-11.615 24.117 0 9.53 3.871 17.868 11.615 25.013 7.742 7.146 15.782 11.019 24.119 11.614 13.101 0 23.819-3.572 32.159-10.72 8.338-7.146 12.804-15.782 13.4-25.906zM726.841 350.32c-10.125-1.786-21.737-2.679-34.839-2.679-55.98 0-107.494 12.804-154.541 38.412-47.049 25.607-84.27 60.447-111.663 104.517-27.395 44.069-40.794 91.714-40.2 142.93 0 26.202 3.871 51.514 11.612 75.931-11.91 1.191-23.225 1.785-33.945 1.785-8.932 0-17.27-.298-25.012-.893-7.741-.595-16.973-1.785-27.694-3.571-10.72-1.787-18.164-2.978-22.333-3.573-4.169-.595-13.101-2.382-26.799-5.36-13.697-2.977-22.035-4.466-25.013-4.466l-125.956 62.531 35.732-108.09C49.713 579.901 1.474 498.312 1.474 403.026c0-55.981 16.079-107.494 48.239-154.542 32.159-47.048 76.229-84.269 132.21-111.663 55.98-27.395 116.428-40.794 181.341-40.199 58.362 0 113.45 10.72 165.263 32.159 51.811 21.439 95.285 51.812 130.422 91.117 35.137 39.305 57.767 82.777 67.89 130.42zm295.684 279.606c0 38.71-11.316 75.633-33.946 110.77-22.629 35.136-53.598 67.296-92.903 96.476l27.694 90.224-99.157-53.598c-50.025 11.911-86.353 17.866-108.983 17.866-55.98 0-107.494-11.615-154.541-34.841-47.05-23.224-84.27-55.086-111.664-95.583-27.395-40.495-41.093-84.27-41.093-131.315 0-47.051 13.697-91.118 41.093-132.21 27.395-41.092 64.616-72.656 111.664-94.691 47.048-22.035 98.56-33.945 154.541-35.732 53.599 0 103.924 11.911 150.969 35.732 47.048 23.822 84.864 55.683 113.45 95.584 28.585 39.901 42.877 83.674 42.877 131.317z"/></svg>