<svg viewBox="0 0 1024 1024" xmlns="http://www.w3.org/2000/svg" width="200" height="200"><path d="M386.12 732.001c7.482-12.239 9.522-25.158 6.121-38.76-3.401-13.599-11.901-23.121-25.501-28.559-12.919-5.44-26.86-5.44-41.819 0-14.96 5.439-26.18 13.941-33.661 25.501-8.84 12.92-11.56 25.84-8.161 38.759 3.4 12.921 11.56 22.782 24.481 29.582 12.919 6.8 27.201 7.14 42.84 1.019 15.641-6.119 27.542-15.299 35.7-27.541zm53.042-68.339c3.399-4.758 4.079-9.86 2.039-15.3-2.039-5.439-5.439-8.838-10.2-10.198-4.759-2.039-10.199-2.039-16.32 0-6.118 2.039-10.199 5.439-12.24 10.198-6.118 12.241-3.399 21.082 8.162 26.522 5.438 1.36 10.88 1.018 16.32-1.021 5.439-2.039 9.519-5.44 12.239-10.2zm98.94 61.202c-16.999 38.758-46.922 66.977-89.76 84.658-42.84 17.681-85.341 20.061-127.502 7.142-40.8-12.922-68.681-37.063-83.641-72.421-14.96-35.359-13.941-70.72 3.061-106.08 18.359-35.362 47.26-61.882 86.7-79.562 39.441-17.68 79.221-21.08 119.342-10.2 42.158 10.881 72.419 33.322 90.78 67.32 18.361 34.002 18.702 70.383 1.021 109.144zm177.482-91.801c-3.399-36.042-20.061-68.001-49.983-95.881-29.918-27.88-69.698-48.621-119.339-62.221-49.64-13.601-101.66-17.68-156.061-12.241-84.319 8.842-154.361 35.701-210.121 80.581-55.761 44.881-80.921 95.2-75.48 150.96 3.399 36.041 20.4 68.003 51.001 95.882 30.599 27.878 70.04 48.619 118.321 62.22 48.28 13.6 100.3 17.678 156.06 12.24 85-8.838 155.04-35.699 210.121-80.58 55.083-44.88 80.241-95.201 75.482-150.96zm175.441 3.061c0 25.838-6.801 52.019-20.403 78.539-13.601 26.521-34.339 52.7-62.22 78.541-27.879 25.841-59.841 47.942-95.881 66.302-36.04 18.358-78.881 34.341-128.521 47.941-49.642 13.599-100.98 19.379-154.021 17.339s-105.401-8.501-157.082-19.379c-51.68-10.882-97.241-28.221-136.682-52.022-39.44-23.799-72.08-52.7-97.92-86.702-25.841-33.999-38.08-71.738-36.719-113.22 0-43.522 13.26-90.101 39.781-139.741 26.52-49.643 63.92-98.602 112.2-146.882 63.921-63.921 128.861-108.461 194.822-133.622 65.96-25.159 112.542-24.14 139.743 3.06 24.479 24.481 28.218 64.262 11.221 119.342-1.36 5.441-1.36 9.18 0 11.221 1.36 2.039 3.059 3.399 5.099 4.08 2.037.678 4.758.678 8.159 0 3.399-.68 6.119-1.361 8.161-2.04l3.06-1.02c53.041-22.44 99.962-33.661 140.762-33.661s69.699 11.56 86.702 34.681c17 23.8 17 57.461 0 100.981-.682 5.439-1.7 9.18-3.061 11.22-1.358 2.04-.339 4.421 3.061 7.142 3.398 2.72 5.78 4.419 7.141 5.098 1.361.68 4.42 1.702 9.181 3.062 21.762 6.801 41.48 15.639 59.16 26.52 17.682 10.881 32.639 26.52 44.881 46.921 12.235 20.402 18.697 42.501 19.376 66.302zm-41.819-355.985c15.639 18.36 25.838 39.101 30.599 62.221 4.758 23.119 3.741 45.56-3.06 67.321-3.401 8.159-9.18 14.62-17.34 19.379-8.161 4.76-16.658 5.44-25.5 2.04-8.163-3.4-14.623-9.18-19.38-17.341-4.758-8.158-5.439-16.66-2.04-25.499 7.482-23.801 3.06-44.541-13.259-62.222-16.32-17.679-36.72-24.48-61.201-20.401-8.841 2.039-17.338.679-25.5-4.08-8.162-4.76-12.921-11.901-14.281-21.421-2.04-9.52-.339-18.019 5.099-25.501 5.44-7.48 12.242-12.24 20.402-14.28 23.122-4.759 45.899-3.739 68.338 3.061 22.441 6.802 41.48 19.041 57.123 36.721zm103.02-92.82c32.639 36.72 54.057 79.221 64.261 127.501 10.201 48.281 7.481 93.84-8.163 136.682-3.397 10.199-9.86 18.018-19.377 23.459-9.522 5.439-19.38 6.119-29.582 2.039-10.199-4.079-17.68-10.539-22.441-19.379-4.758-8.841-5.78-18.7-3.06-29.581 10.881-31.279 12.919-63.92 6.119-97.919-6.801-34.001-22.101-63.922-45.899-89.761-23.802-26.52-52.021-44.539-84.661-54.06-32.639-9.52-65.282-11.221-97.922-5.1-10.879 2.04-20.738 0-29.578-6.12s-14.619-14.28-17.339-24.481c-2.722-10.199-1.019-20.061 5.1-29.58 6.118-9.521 14.617-14.96 25.501-16.322 46.239-9.519 92.478-7.479 138.721 6.12 46.238 13.601 85.679 39.101 118.32 76.501z"/></svg>