<?xml version="1.0" encoding="utf-8"?>
<!-- Generator: Adobe Illustrator 22.0.0, SVG Export Plug-In . SVG Version: 6.00 Build 0)  -->
<svg version="1.1" id="图层_1" xmlns="http://www.w3.org/2000/svg" xmlns:xlink="http://www.w3.org/1999/xlink" x="0px" y="0px"
	 viewBox="0 0 1109.3 190" style="enable-background:new 0 0 1109.3 190;" xml:space="preserve">
<style type="text/css">
	.st0{fill:url(#SVGID_1_);}
	.st1{fill:#99AA33;}
</style>
<linearGradient id="SVGID_1_" gradientUnits="userSpaceOnUse" x1="21.1" y1="95.3" x2="349.8" y2="95.3" gradientTransform="matrix(1 0 0 -1 0 192)">
	<stop  offset="0" style="stop-color:#00A09C"/>
	<stop  offset="0.5085" style="stop-color:#009DD2"/>
	<stop  offset="1" style="stop-color:#005984"/>
</linearGradient>
<path class="st0" d="M273,169c-18.2,0-40-10.7-66.5-32.7c-5.9-4.9-11.9-10.2-17.8-15.9c-0.6-0.6-1.2-1.1-1.8-1.7
	c-0.6-0.5-1.1-1.1-1.7-1.6l-19.4-20l-3.4-3.3c-20.8-20-48.6-41.4-64.3-41.4c-26,0-47.1,19.9-47.1,44.4s21.1,44.4,47.1,44.4
	c10.8,0,29.4-10.7,50.8-29.2c0.3-0.2,0.8-0.7,0.8-0.7s11.9-6.5,19.7,2.2s0.4,18.4,0.4,18.4s-0.4,0.3-0.6,0.5c-1.6,1.3-3.1,2.7-4.7,4
	C138,158.3,116.2,169,98,169c-42.4,0-76.9-32.4-76.9-72.2S55.6,24.5,98,24.5c18.2,0,40,10.7,66.5,32.7c5.9,4.9,11.9,10.2,17.8,15.9
	c0.6,0.6,1.2,1.1,1.7,1.7c0.6,0.6,1.2,1.2,1.8,1.7l19.4,20l1.6,1.5l0.2,0.2c0.5,0.5,1,1,1.6,1.5c20.8,20,48.7,41.4,64.3,41.4
	c26,0,47.1-19.9,47.1-44.4s-21.1-44.4-47.1-44.4c-10.4,0-27.9,9.9-48.3,26.9c-0.3,0.3-0.9,0.8-0.9,0.8s-12.7,9.1-21.4-2.2
	c-6.8-8.8,2.3-19.2,2.3-19.2s0.4-0.4,0.7-0.6c0.4-0.3,0.7-0.6,1.1-0.9c26.5-22,48.3-32.7,66.5-32.7c42.4,0,76.9,32.4,76.9,72.2
	S315.4,169,273,169z"/>
<path class="st1" d="M572.3,22.7c-19.2,0-35.9,6.9-49.9,20.7c-14.1,13.9-21.1,31.4-21.1,52.6c0,21.4,6.7,39,20.2,52.9
	c13.5,13.9,30.8,20.8,51.7,20.8c21,0,38.3-7,52.1-20.9S646,117.4,646,96.3c0-21.3-7-38.8-20.9-52.8
	C611.2,29.6,593.6,22.7,572.3,22.7z M602.5,128.8c-7.4,8.3-17.2,12.4-29.2,12.4c-11.4,0-20.9-4.2-28.4-12.6
	c-7.5-8.4-11.3-18.9-11.3-31.7c0-13.5,3.6-24.5,11-33c7.4-8.6,17.1-12.7,29.1-12.5c12,0.2,21.7,4.4,29,12.4
	c7.3,8.1,10.9,18.9,10.9,32.2C613.6,109.6,609.9,120.5,602.5,128.8z"/>
<path class="st1" d="M487.8,45.9c4.7,0,8-1,10.3-3.1c2.3-2.1,3.4-4.9,3.4-8.3s-1.2-6.1-3.4-8.2c-2.2-2.1-5.7-3.1-10.3-3.1h-68.4
	c-4.1,0-7.5,0.6-10.1,1.8s-4.6,3.1-5.8,5.8c-1.3,2.7-1.9,6.2-1.9,10.4V153c0,6,1.4,10.5,4.1,13.5s6.2,4.5,10.5,4.5
	c4.2,0,7.7-1.5,10.4-4.4c2.7-2.9,4.1-7.4,4.1-13.5v-47.9h47.8c4.4,0,7.7-1,9.9-3s3.3-4.6,3.3-8c0-3.4-1.1-6.1-3.3-8.1
	c-2.2-2-5.5-3-9.9-3h-47.8V45.9H487.8z"/>
<path class="st1" d="M760.4,22.8c-4.3,0-7.8,1.4-10.4,4.3c-2.6,2.9-3.9,7.3-3.9,13.2v71c0,12.2-2.3,21.4-7,27.4s-12.7,9-24,9
	c-8.2,0-14.5-1.4-19.1-4.4c-4.5-3-7.7-7.1-9.5-12.5s-2.7-12.1-2.7-20.1V40.3c0-5.9-1.4-10.3-4-13.2c-2.6-2.9-6.2-4.4-10.7-4.4
	c-4.3,0-7.7,1.5-10.4,4.4c-2.7,2.9-4,7.3-4,13.2v68.9c0,10.8,1.2,20.1,3.5,27.7c2.3,7.7,6,14.1,11,19.1c5,4.9,11.5,8.6,19.4,11
	s17.4,3.6,28.4,3.6c9.2,0,17.3-1.1,24.2-3.3s13-5.7,18.2-10.5c6.1-5.6,10.2-12.2,12.4-19.7s3.3-16.8,3.3-28V40.3
	c0-5.9-1.4-10.3-4.1-13.2C768.3,24.3,764.8,22.8,760.4,22.8z"/>
<path class="st1" d="M895.2,22.6c-4,0-7.2,1.4-9.6,4.2c-2.4,2.8-3.6,7-3.6,12.5v85.2l-55.8-84.4c-1.5-2.5-3-4.8-4.4-7.1
	c-1.5-2.3-2.9-4.2-4.3-5.6c-1.4-1.4-3-2.6-4.9-3.4c-1.9-0.9-4.1-1.3-6.7-1.3c-3.3,0-6.4,0.9-9.3,2.8s-5,4.3-6.2,7.2
	c-1.1,2.6-1.6,6.3-1.6,11v110.5c0,5.5,1.2,9.6,3.7,12.4c2.5,2.8,5.8,4.2,9.9,4.2c4,0,7.3-1.4,9.8-4.2s3.8-6.9,3.8-12.4V70.3
	l54.4,83.3c1.6,2.3,3.1,4.5,4.7,6.7s3.3,4.1,5.1,5.7c1.9,1.7,3.8,2.9,5.9,3.6s4.4,1.1,7,1.1c10.4,0,15.6-6.2,15.6-18.8V39.3
	c0-5.6-1.2-9.7-3.6-12.5S899.4,22.6,895.2,22.6z"/>
<path class="st1" d="M1024.5,37.4c-5.8-5.1-12.3-8.5-19.5-10.4s-15.8-2.8-25.8-2.8h-38.5c-6.4,0-11,1.4-13.7,4.3
	c-2.9,2.8-4.3,7.4-4.3,13.8v107c0,4.7,0.4,8.5,1.2,11.5s2.6,5.3,5.3,6.9c2.7,1.6,6.7,2.4,12.1,2.4h38.5c6.7,0,12.8-0.4,18.1-1.3
	c5.4-0.9,10.4-2.4,15-4.5c4.6-2.2,8.9-5,12.8-8.5c4.9-4.6,9-9.8,12.2-15.6c3.2-5.8,5.6-12.3,7.1-19.5c1.5-7.3,2.3-15.2,2.3-24
	C1047.3,70.2,1039.7,50.4,1024.5,37.4z M1002.5,139.6c-2.2,1.9-4.8,3.4-7.8,4.5c-3,1.1-5.9,1.7-8.7,2c-2.7,0.3-6.6,0.4-11.5,0.4
	h-22.4v-99h19.5c9,0,16.7,0.9,23.1,2.9c6.4,2,11.8,6.5,16.1,13.7c4.3,7.1,6.5,17.9,6.5,32.3C1017.3,116.9,1012.4,131.2,1002.5,139.6
	z"/>
<path class="st1" d="M1070.6,44.6c2.6,2.3,5.8,3.4,9.5,3.4c3.5,0,6.6-1.2,9.3-3.5c2.6-2.3,3.9-5.5,3.9-9.6c0-4.3-1.3-7.5-4-9.7
	s-5.7-3.3-9.2-3.3c-3.6,0-6.7,1.3-9.4,3.7c-2.7,2.4-4.1,5.5-4.1,9.3C1066.6,39.1,1068,42.3,1070.6,44.6z"/>
<path class="st1" d="M1079.7,60.4c-3.9,0-7.1,1.3-9.5,4c-2.5,2.7-3.7,6.6-3.7,11.9v76.3c0,5.2,1.3,9.2,3.7,12
	c2.4,2.8,5.6,4.2,9.5,4.2s7.2-1.4,9.7-4.1s3.8-6.8,3.8-12.1V75.5c0-4.7-1.2-8.4-3.8-11.1C1086.8,61.7,1083.6,60.4,1079.7,60.4z"/>
</svg>
