<svg xmlns="http://www.w3.org/2000/svg" viewBox="0 0 48 48"><path d="M38,19c-1.1,0-2,0.9-2,2v19H8V12h18.4c1.1,0,2-0.9,2-2s-0.9-2-2-2H8c-2.2,0-4,1.8-4,4v28c0,2.2,1.8,4,4,4h28
	c2.2,0,4-1.8,4-4V21C40,19.9,39.1,19,38,19z"/><path d="M42,8h-2V5.8c0-1.1-0.9-2-2-2s-2,0.9-2,2V8h-2c-1.1,0-2,0.9-2,2s0.9,2,2,2h2v1.8c0,1.1,0.9,2,2,2s2-0.9,2-2V12
	h2c1.1,0,2-0.9,2-2S43.1,8,42,8z"/><path d="M24.4,18.5c-0.7,0-1.3,0.4-1.6,0.9l-2.2,3.4l-1.2-1.2c-0.4-0.4-1-0.6-1.6-0.6c-0.6,0-1.1,0.3-1.5,0.8l-6,8
	c-0.5,0.6-0.5,1.4-0.2,2.1c0.3,0.7,1,1.1,1.8,1.1h20c0.7,0,1.4-0.4,1.8-1.1c0.3-0.7,0.3-1.5-0.1-2.1l-7.5-10.5
	C25.7,18.8,25.1,18.5,24.4,18.5z M16,29l2.2-3l1.4,1.4c0.4,0.4,1,0.6,1.6,0.6c0.6-0.1,1.1-0.4,1.5-0.9l1.9-3l3.5,5H16z"/></svg>