<svg xmlns="http://www.w3.org/2000/svg" viewBox="0 0 48 48"><g><path d="M44,3H4C2.9,3,2,3.9,2,5v11.2V17v13.2c0,1.1,0.9,2,2,2s2-0.9,2-2V19h36v22H13c-1.1,0-2,0.9-2,2s0.9,2,2,2h31
		c1.1,0,2-0.9,2-2c0-0.1,0-0.3,0-0.4c0-0.1,0-0.3,0-0.4V17v-0.8V5C46,3.9,45.1,3,44,3z M6,7h36v8H6V7z"/><path d="M21.4,36.5c0.8,0.8,2,0.7,2.8,0l6.6-6.6l3.1,3c0.8,0.8,2.1,0.8,2.8,0c0.8-0.8,0.8-2.1,0-2.8l-4.5-4.4
		c-0.8-0.8-2-0.8-2.8,0l-6.7,6.6l-5.2-4.9c-0.8-0.8-2-0.7-2.8,0L2.6,39.6c-0.8,0.8-0.8,2.1,0,2.8C3,42.8,3.5,43,4,43
		c0.5,0,1-0.2,1.4-0.6l10.8-10.9L21.4,36.5z"/><path d="M11,9h-1c-1.1,0-2,0.9-2,2s0.9,2,2,2h1c1.1,0,2-0.9,2-2S12.1,9,11,9z"/><path d="M38,9H17c-1.1,0-2,0.9-2,2s0.9,2,2,2h21c1.1,0,2-0.9,2-2S39.1,9,38,9z"/></g></svg>