<svg xmlns="http://www.w3.org/2000/svg" viewBox="0 0 24 24"><path fill-opacity=".01" d="M0 0h24v24H0z"/><path d="m22.1 6.5-1.5-3.9c-.2-.3-.6-.6-1-.6H4.4c-.4 0-.8.3-.9.6L2 6.5c-.5 1.2-.3 2.6.4 3.7.2.3.4.5.6.7V21c0 .6.4 1 1 1h16c.6 0 1-.4 1-1V10.9c.2-.2.4-.4.6-.7.8-1.1.9-2.4.5-3.7zm-18.2.7L5.1 4h13.8l1.3 3.2c.2.6.2 1.3-.2 1.9-.4.6-1 .9-1.7.9-1.1 0-2-.9-2-2 0-.6-.4-1-1-1s-1 .4-1 1c0 1.1-.9 2-2 2h-.5c-1.1 0-2-.9-2-2 0-.6-.4-1-1-1s-1 .4-1 1c0 1.1-.9 2-2 2-.7 0-1.3-.3-1.7-.9-.4-.5-.5-1.2-.2-1.9zM5 20v-8.1c.3.1.5.1.8.1 1.2 0 2.3-.5 3-1.4.7.8 1.8 1.4 3 1.4h.5c1.2 0 2.3-.5 3-1.4.7.8 1.8 1.4 3 1.4.3 0 .5 0 .7-.1V20H5z"/></svg>