<svg xmlns="http://www.w3.org/2000/svg" viewBox="0 0 24 24"><path d="M22 10h-3V3c0-.6-.4-1-1-1H2c-.6 0-1 .4-1 1v12c0 .6.4 1 1 1h2.1l1.7 1.7c.2.2.4.3.7.3s.5-.1.7-.3L8.9 16H10v3c0 .6.4 1 1 1h5.1l1.2 1.2c.2.2.5.3.7.3s.5-.1.7-.3l1.2-1.2H22c.6 0 1-.4 1-1v-8c0-.6-.4-1-1-1zM8.5 14c-.3 0-.5.1-.7.3l-1.3 1.3-1.3-1.3c-.2-.2-.4-.3-.7-.3H3V4h14v10H8.5zM21 18h-1.5c-.3 0-.5.1-.7.3l-.8.8-.8-.8c-.2-.2-.4-.3-.7-.3H12v-2h6c.6 0 1-.4 1-1v-3h2v6z"/><path d="M10 8h-.5c-.6 0-1 .4-1 1s.4 1 1 1h.5c.6 0 1-.4 1-1s-.4-1-1-1zm3 2h.5c.6 0 1-.4 1-1s-.4-1-1-1H13c-.6 0-1 .4-1 1s.4 1 1 1zM6.5 8H6c-.6 0-1 .4-1 1s.4 1 1 1h.5c.6 0 1-.4 1-1s-.4-1-1-1z"/></svg>