<svg xmlns="http://www.w3.org/2000/svg" viewBox="0 0 24 24"><path d="M12 1C5.9 1 1 5.9 1 12s4.9 11 11 11 11-4.9 11-11S18.1 1 12 1zm7.1 16.6c-.7-.6-1.5-1.1-2.4-1.5.2-1 .3-2 .3-3h4c-.2 1.6-.9 3.2-1.9 4.5zM3.1 13h4c0 1 .1 2.1.3 3-.9.4-1.7.9-2.4 1.5-1.1-1.2-1.8-2.8-1.9-4.5zm1.8-6.6C5.7 7 6.5 7.6 7.3 8c-.2 1-.3 2-.3 3H3c.2-1.7.9-3.3 1.9-4.6zm9.5.3c-.8.2-1.6.3-2.4.3-.8 0-1.6-.1-2.4-.3C10.3 4.3 11.2 3 12 3c.8 0 1.7 1.3 2.4 3.7zm.9-3.1c.9.4 1.7.8 2.3 1.4-.5.4-.9.7-1.4 1-.2-.9-.5-1.7-.9-2.4zM9 11c0-.8.1-1.6.2-2.4.9.3 1.9.4 2.8.4s1.9-.1 2.8-.4c.1.7.2 1.5.2 2.4H9zm6 2c0 .8-.1 1.6-.2 2.4-.9-.3-1.9-.4-2.8-.4-.9 0-1.9.1-2.8.4-.1-.8-.1-1.6-.2-2.4h6zM7.8 6c-.5-.3-1-.6-1.4-1 .6-.6 1.4-1 2.3-1.4-.4.7-.7 1.5-.9 2.4zm0 12c.2.9.5 1.6.9 2.3-.9-.3-1.7-.7-2.3-1.3.4-.4.9-.7 1.4-1zm1.8-.7c.8-.2 1.5-.3 2.4-.3.8 0 1.6.1 2.4.3-.7 2.4-1.6 3.7-2.4 3.7-.8 0-1.7-1.3-2.4-3.7zm6.6.7c.5.3 1 .6 1.4 1-.7.6-1.5 1-2.3 1.4.4-.7.7-1.5.9-2.4zm.8-7c0-1-.1-2.1-.3-3 .9-.4 1.7-.9 2.4-1.5 1 1.3 1.7 2.9 1.9 4.6h-4z"/></svg>