<svg xmlns="http://www.w3.org/2000/svg" viewBox="0 0 24 24"><path d="M18.5 22c-.3 0-.5-.1-.7-.3L12 15.9l-5.8 5.8c-.4.4-1 .4-1.4 0l-2.5-2.5c-.4-.4-.4-1 0-1.4L8.1 12 2.3 6.2c-.4-.4-.4-1 0-1.4l2.5-2.5c.4-.4 1-.4 1.4 0L12 8.1l5.8-5.8c.4-.4 1-.4 1.4 0l2.5 2.5c.4.4.4 1 0 1.4L15.9 12l5.8 5.8c.4.4.4 1 0 1.4l-2.5 2.5c-.2.2-.4.3-.7.3zM12 13.5c.3 0 .5.1.7.3l5.8 5.8 1.1-1.1-5.8-5.8c-.4-.4-.4-1 0-1.4l5.8-5.8-1.1-1.1-5.8 5.8c-.4.4-1 .4-1.4 0L5.5 4.4 4.4 5.5l5.8 5.8c.4.4.4 1 0 1.4l-5.8 5.8 1.1 1.1 5.8-5.8c.2-.2.4-.3.7-.3z"/></svg>