<svg xmlns="http://www.w3.org/2000/svg" viewBox="0 0 48 48"><path d="M43.5,38.4L39,29.1l-7-14.5V4c0-1.1-0.9-2-2-2H18c-1.1,0-2,0.9-2,2v10.6L9,29.1l-4.5,9.3
	c-1.3,2.6-0.2,5.8,2.4,7c0,0,0,0,0,0C7.6,45.8,8.4,46,9.2,46h29.6c0.8,0,1.6-0.2,2.3-0.5c1.3-0.6,2.2-1.7,2.7-3
	C44.2,41.1,44.1,39.7,43.5,38.4z M19.8,15.9C20,15.6,20,15.3,20,15V6h8v9c0,0.3,0.1,0.6,0.2,0.9l4.9,10.2c-3.2-0.7-7.1-0.5-10.4,2.3
	c-3.3,2.8-7.2,1.7-9.3,0.7L19.8,15.9z M40,41.1c-0.1,0.3-0.3,0.6-0.6,0.7C39.2,42,39,42,38.8,42H9.2c-0.2,0-0.4,0-0.6-0.1
	c-0.6-0.3-0.9-1.1-0.6-1.7l3.6-7.4c3.5,1.6,9,2.6,13.6-1.2c4.1-3.4,9-1,10.4-0.1l4.2,8.8C40.1,40.5,40.1,40.8,40,41.1z"/></svg>