<svg xmlns="http://www.w3.org/2000/svg" viewBox="0 0 48 48"><path d="M45.5,19.7C45.2,19.3,44.6,19,44,19h-2.5v-4c0-2.2-1.8-4-4-4H24.9l-4.4-5.3C20.2,5.3,19.6,5,19,5H6
	C3.8,5,2,6.8,2,9v32c0,0.1,0,0.3,0,0.4c0,0,0,0.1,0,0.1c0,0.1,0.1,0.2,0.1,0.3c0,0,0,0.1,0.1,0.1c0,0.1,0.1,0.2,0.2,0.2
	c0,0,0,0.1,0,0.1c0,0,0,0,0,0c0.1,0.1,0.2,0.2,0.3,0.3c0,0,0,0,0,0c0.1,0.1,0.2,0.2,0.3,0.2c0,0,0.1,0,0.1,0c0.1,0,0.2,0.1,0.3,0.1
	c0,0,0.1,0,0.1,0c0,0,0.1,0,0.1,0c0.1,0,0.2,0,0.2,0c0,0,0,0,0,0h36c1,0,1.8-0.7,2-1.6l4-20C46.1,20.8,45.9,20.2,45.5,19.7z M18.1,9
	l4.4,5.3c0.4,0.5,0.9,0.7,1.5,0.7h13.5v4H9H8.8c-0.9,0-1.7,0.6-1.9,1.5L6,24.1V9H18.1z M38.4,39H6.6l4-16h28.9h2.1L38.4,39z"/></svg>