<svg xmlns="http://www.w3.org/2000/svg" viewBox="0 0 24 24"><path d="M19.8 4.2C17.7 2.1 14.9 1 12 1 9.1 1 6.3 2.1 4.2 4.2 2.1 6.3 1 9.1 1 12c0 2.9 1.1 5.7 3.2 7.8C6.3 21.9 9.1 23 12 23c2.9 0 5.7-1.1 7.8-3.2S23 14.9 23 12c0-2.9-1.1-5.7-3.2-7.8zm-1.4 14.2c-1.7 1.7-4 2.6-6.4 2.6-2.4 0-4.7-.9-6.4-2.6C3.9 16.7 3 14.4 3 12c0-2.4.9-4.7 2.6-6.4C7.3 3.9 9.6 3 12 3c2.4 0 4.7.9 6.4 2.6 1.7 1.7 2.6 4 2.6 6.4 0 2.4-.9 4.7-2.6 6.4z"/><circle cx="12" cy="6.8" r="1.3"/><path d="M14 16h-.8v-6c0-.6-.4-1-1-1h-1c-.6 0-1 .4-1 1s.4 1 1 1v5h-.8c-.6 0-1 .4-1 1s.4 1 1 1H14c.6 0 1-.4 1-1s-.4-1-1-1z"/></svg>