<svg xmlns="http://www.w3.org/2000/svg" viewBox="0 0 48 48"><path d="m43.5 14.6-4.1-4.1 2.1-2.1c.8-.8.8-2 0-2.8-.8-.8-2-.8-2.8 0l-16 16c-4.6-3.1-11-2.6-15.1 1.4-4.6 4.6-4.7 12-.1 16.7 2.3 2.3 5.4 3.5 8.5 3.5 1 0 2-.1 3-.4 4.1-1.1 7.4-4.3 8.5-8.4.9-3.5.2-7.2-1.9-10.1l4.7-4.7 4.1 4.1c.4.4.9.6 1.4.6s1-.2 1.4-.6l6.3-6.3c.4-.4.6-.9.6-1.4s-.2-1-.6-1.4zM23.6 33.4c-.7 2.7-2.9 4.9-5.6 5.6-2.8.7-5.7-.1-7.7-2.1-3-3.1-3-8 .1-11.1 1.5-1.5 3.6-2.3 5.6-2.3 2 0 4 .7 5.5 2.2l.1.1c1.9 2 2.7 4.9 2 7.6zm12.1-13.9-2.6-2.6 3.5-3.5 2.6 2.6-3.5 3.5z"/></svg>