<svg xmlns="http://www.w3.org/2000/svg" viewBox="0 0 24 24"><path d="M8.9 15.6c0-.1-.1-.2-.2-.3-.1-.1-.2-.2-.3-.2-.1-.1-.3-.1-.4-.1H3.5c-.6 0-1 .4-1 1s.4 1 1 1h2.1l-3.3 3.2c-.4.4-.4 1 0 1.4.2.3.4.4.7.4.3 0 .5-.1.7-.3L7 18.4v2.1c0 .6.4 1 1 1s1-.4 1-1v-4.6c0-.1 0-.2-.1-.3zm12.8 4.6L18.5 17h2c.6 0 1-.4 1-1s-.4-1-1-1H16c-.6 0-1 .4-1 1v4.5c0 .6.4 1 1 1s1-.4 1-1v-2.1l3.3 3.3c.2.2.5.3.7.3s.5-.1.7-.3c.4-.4.4-1.1 0-1.5zM16 9h4.5c.6 0 1-.4 1-1s-.4-1-1-1h-2.1l3.3-3.3c.4-.4.4-1 0-1.4s-1-.4-1.4 0L17 5.5v-2c0-.6-.4-1-1-1s-1 .4-1 1V8c0 .6.4 1 1 1zM8 2.5c-.6 0-1 .4-1 1v2.1L3.7 2.3c-.4-.4-1-.4-1.4 0-.4.4-.4 1 0 1.4L5.6 7H3.5c-.6 0-1 .4-1 1s.4 1 1 1H8c.6 0 1-.4 1-1V3.5c0-.6-.4-1-1-1z"/></svg>