<svg xmlns="http://www.w3.org/2000/svg" viewBox="0 0 24 24"><path d="M9.5 11C12 11 14 9 14 6.5S12 2 9.5 2 5 4 5 6.5 7 11 9.5 11zm0-7C10.9 4 12 5.1 12 6.5S10.9 9 9.5 9 7 7.9 7 6.5 8.1 4 9.5 4zm6.3 4.6c-.5.3-.6.9-.3 1.4.2.3.5.5.9.5.2 0 .4 0 .5-.1 1.3-.9 2.1-2.3 2.1-3.9s-.8-3-2.2-3.9c-.5-.3-1.1-.1-1.4.3s-.1 1.1.3 1.4c.8.5 1.3 1.3 1.3 2.2s-.5 1.7-1.2 2.1zm-.5 4.9c-1.1-.5-2.3-.5-4.7-.5H8.4c-2.4 0-3.6 0-4.7.5-.9.5-1.7 1.3-2.2 2.2C1 16.8 1 18 1 20.4v.6c0 .6.4 1 1 1h15c.6 0 1-.4 1-1v-.6c0-2.4 0-3.6-.5-4.7-.5-.9-1.3-1.7-2.2-2.2zM3 20c0-1.8 0-2.8.3-3.4.3-.6.7-1 1.3-1.3.7-.3 1.7-.3 3.8-.3h2.2c2.1 0 3.1 0 3.8.3.6.3 1 .7 1.3 1.3.3.6.3 1.6.3 3.4H3zm19.5-4.3c-.5-.9-1.2-1.7-2.2-2.2-.5-.3-1.1-.1-1.3.4-.3.5-.1 1.1.4 1.3.6.3 1 .7 1.3 1.3.3.6.3 1.7.3 3.8v.7c0 .6.4 1 1 1s1-.4 1-1v-.6c0-2.4 0-3.6-.5-4.7z"/></svg>