<svg xmlns="http://www.w3.org/2000/svg" viewBox="0 0 24 24"><path d="M12 11c2.5 0 4.5-2 4.5-4.5S14.5 2 12 2 7.5 4 7.5 6.5 9.5 11 12 11zm0-7c1.4 0 2.5 1.1 2.5 2.5S13.4 9 12 9 9.5 7.9 9.5 6.5 10.6 4 12 4zm9.5 11.7c-.5-.9-1.2-1.7-2.2-2.2-1.1-.5-2.3-.5-4.7-.5H9.4c-2.4 0-3.6 0-4.7.5-.9.5-1.7 1.3-2.2 2.2C2 16.8 2 18 2 20.4v.6c0 .6.4 1 1 1h18c.6 0 1-.4 1-1v-.6c0-2.4 0-3.6-.5-4.7zM4 20c0-1.8 0-2.8.3-3.4.3-.6.7-1 1.3-1.3.7-.3 1.7-.3 3.8-.3h5.2c2.1 0 3.1 0 3.8.3.6.3 1 .7 1.3 1.3.3.6.3 1.6.3 3.4H4z"/></svg>