<svg xmlns="http://www.w3.org/2000/svg" viewBox="0 0 24 24"><path d="M18.4 20.8c-.3 0-.6 0-.9-.2-2.8-.9-6.6-2.6-9.1-5.1C5.9 13 4.3 9.2 3.3 6.4c-.2-.8-.1-1.7.4-2.4s1.4-1.2 2.4-1.2h2.5c.7 0 1.4.4 1.7 1L11.5 6c.3.6.3 1.3 0 1.8l-1 2c.2.5.5 1.5 1.4 2.3.8.8 1.8 1.2 2.3 1.4l2-1c.6-.3 1.3-.3 1.8 0l2.2 1.2c.6.3 1 1 1 1.7v2.5c0 .9-.4 1.8-1.2 2.4-.4.3-1 .5-1.6.5zM6.1 4.8c-.3 0-.6.1-.7.4-.1 0-.3.3-.1.6.7 2.1 2.2 6 4.6 8.3 2.3 2.3 6.2 3.9 8.3 4.6.3.1.6 0 .7-.1.2-.2.4-.4.4-.7v-2.5l-2.2-1.2-2.3 1.2c-.2.1-.4.1-.6.1-.1 0-2-.4-3.6-2s-2-3.6-2-3.6c0-.2 0-.4.1-.6L9.9 7 8.6 4.8H6.1zm2.5 0z"/></svg>