<svg viewBox="0 0 1024 1024" xmlns="http://www.w3.org/2000/svg" width="200" height="200"><path d="M866.991 707.772s-25.341 69.55-71.877 132.071c0 0 83.05 28.439 76.137 102.196 0 0 2.709 82.331-177.613 76.685 0 0-126.817-9.898-164.88-63.85h-33.53c-38.018 54.006-164.834 63.85-164.834 63.85-180.431 5.7-177.556-76.685-177.556-76.685-7.025-73.756 76.081-102.196 76.081-102.196-46.475-62.519-71.875-132.071-71.875-132.071C44.285 890.913 55.567 682.205 55.567 682.205 76.708 558.71 165.516 477.821 165.516 477.821c-12.677-112.157 33.805-132.078 33.805-132.078C209.001-1.236 505.794 4.856 511.996 5.021c6.249-.163 302.931-6.256 312.72 340.723 0 0 46.538 19.866 33.812 132.078 0 0 88.751 80.89 109.886 204.384.055-.001 11.285 208.707-101.421 25.566z"/></svg>