<svg xmlns="http://www.w3.org/2000/svg" viewBox="0 0 24 24"><path d="M9.5 11C12 11 14 9 14 6.5S12 2 9.5 2 5 4 5 6.5 7 11 9.5 11zm0-7C10.9 4 12 5.1 12 6.5S10.9 9 9.5 9 7 7.9 7 6.5 8.1 4 9.5 4zM5.6 15.3c.7-.3 1.7-.3 3.8-.3h2.7c.6 0 1-.4 1-1s-.4-1-1-1H9.4c-2.4 0-3.6 0-4.7.5-.9.5-1.7 1.3-2.2 2.2C2 16.8 2 18 2 20.4v.6c0 .6.4 1 1 1h9c.6 0 1-.4 1-1s-.4-1-1-1H4c0-1.8 0-2.8.3-3.4.3-.5.8-1 1.3-1.3zm16 4c.6 0 1-.4 1-1s-.4-1-1-1h-.7c0-.1-.1-.2-.1-.3l.5-.5c.4-.4.4-1 0-1.4s-1-.4-1.4 0l-.5.5c-.1 0-.2-.1-.2-.1v-.7c0-.6-.4-1-1-1s-1 .4-1 1v.7c-.1 0-.2.1-.3.1l-.5-.5c-.4-.4-1-.4-1.4 0s-.4 1 0 1.4l.5.5c0 .1-.1.2-.1.3h-.7c-.6 0-1 .4-1 1s.4 1 1 1h.7c0 .1.1.2.1.2l-.6.6c-.4.4-.4 1 0 1.4.2.2.5.3.7.3s.5-.1.7-.3l.6-.6c.1.1.2.1.3.1v.8c0 .6.4 1 1 1s1-.4 1-1v-.7c.1 0 .2-.1.3-.1l.6.6c.2.2.5.3.7.3s.5-.1.7-.3c.4-.4.4-1 0-1.4l-.7-.6c0-.1.1-.2.1-.3h.7zm-4.5-1c0-.6.4-1 1-1 .2 0 .5.1.6.2 0 0 .1 0 .1.1.2.2.3.4.3.7 0 .6-.4 1-1 1s-1-.4-1-1z"/></svg>