<svg xmlns="http://www.w3.org/2000/svg" viewBox="0 0 24 24"><g><path d="M7.3,7.2C7.5,7.4,7.7,7.5,8,7.5s0.5-0.1,0.7-0.3c0.4-0.4,0.4-1,0-1.4l-3-3C5.6,2.7,5.5,2.6,5.4,2.6
		c-0.2-0.1-0.5-0.1-0.8,0C4.5,2.6,4.4,2.7,4.3,2.8l-3,3c-0.4,0.4-0.4,1,0,1.4s1,0.4,1.4,0L4,5.9v12.2l-1.3-1.3c-0.4-0.4-1-0.4-1.4,0
		s-0.4,1,0,1.4l3,3c0.1,0.1,0.2,0.2,0.3,0.2c0.1,0.1,0.3,0.1,0.4,0.1s0.3,0,0.4-0.1c0.1-0.1,0.2-0.1,0.3-0.2l3-3
		c0.4-0.4,0.4-1,0-1.4s-1-0.4-1.4,0L6,18.1V5.9L7.3,7.2z"/><path d="M11,5.5h11c0.6,0,1-0.4,1-1s-0.4-1-1-1H11c-0.6,0-1,0.4-1,1S10.4,5.5,11,5.5z"/><path d="M11,10.5h7c0.6,0,1-0.4,1-1s-0.4-1-1-1h-7c-0.6,0-1,0.4-1,1S10.4,10.5,11,10.5z"/><path d="M22,13.5H11c-0.6,0-1,0.4-1,1s0.4,1,1,1h11c0.6,0,1-0.4,1-1S22.6,13.5,22,13.5z"/><path d="M18,18.5h-7c-0.6,0-1,0.4-1,1s0.4,1,1,1h7c0.6,0,1-0.4,1-1S18.6,18.5,18,18.5z"/></g></svg>