<svg xmlns="http://www.w3.org/2000/svg" viewBox="0 0 48 48"><g><path d="M14.6,14.4C15,14.8,15.5,15,16,15s1-0.2,1.4-0.6c0.8-0.8,0.8-2,0-2.8l-6-6c-0.1-0.1-0.2-0.2-0.3-0.3
		c-0.1,0-0.1-0.1-0.2-0.1c-0.1,0-0.1-0.1-0.2-0.1c-0.1,0-0.1,0-0.2-0.1c-0.1,0-0.1,0-0.2,0C10.1,5,9.9,5,9.6,5c-0.1,0-0.1,0-0.2,0
		c-0.1,0-0.1,0-0.2,0.1C9.2,5.2,9.1,5.2,9,5.3C9,5.3,8.9,5.3,8.9,5.3C8.8,5.4,8.7,5.5,8.6,5.6l-6,6c-0.8,0.8-0.8,2,0,2.8
		c0.8,0.8,2,0.8,2.8,0L8,11.8v24.3l-2.6-2.6c-0.8-0.8-2-0.8-2.8,0c-0.8,0.8-0.8,2,0,2.8l6,6c0.1,0.1,0.2,0.2,0.3,0.3
		c0,0,0.1,0.1,0.2,0.1c0.1,0,0.1,0.1,0.2,0.1c0.1,0,0.1,0,0.2,0.1c0.1,0,0.1,0,0.2,0.1c0.1,0,0.3,0,0.4,0s0.3,0,0.4,0
		c0.1,0,0.1,0,0.2-0.1c0.1,0,0.1,0,0.2-0.1c0.1,0,0.1-0.1,0.2-0.1c0.1,0,0.1-0.1,0.2-0.1c0.1-0.1,0.2-0.2,0.3-0.3l6-6
		c0.8-0.8,0.8-2,0-2.8c-0.8-0.8-2-0.8-2.8,0L12,36.2V11.8L14.6,14.4z"/><path d="M22,11h22c1.1,0,2-0.9,2-2s-0.9-2-2-2H22c-1.1,0-2,0.9-2,2S20.9,11,22,11z"/><path d="M22,21h14c1.1,0,2-0.9,2-2s-0.9-2-2-2H22c-1.1,0-2,0.9-2,2S20.9,21,22,21z"/><path d="M44,27H22c-1.1,0-2,0.9-2,2s0.9,2,2,2h22c1.1,0,2-0.9,2-2S45.1,27,44,27z"/><path d="M36,37H22c-1.1,0-2,0.9-2,2s0.9,2,2,2h14c1.1,0,2-0.9,2-2S37.1,37,36,37z"/></g></svg>