<svg xmlns="http://www.w3.org/2000/svg" viewBox="0 0 24 24"><path d="M17.8 6h3c.6 0 1-.4 1-1s-.4-1-1-1h-3c-.6 0-1 .4-1 1s.4 1 1 1zm-15 0h10v1c0 .6.4 1 1 1s1-.4 1-1V3c0-.6-.4-1-1-1s-1 .4-1 1v1h-10c-.6 0-1 .4-1 1s.4 1 1 1zm0 7h4c.6 0 1-.4 1-1s-.4-1-1-1h-4c-.6 0-1 .4-1 1s.4 1 1 1zm19-2h-10v-1c0-.6-.4-1-1-1s-1 .4-1 1v4c0 .6.4 1 1 1s1-.4 1-1v-1h10c.6 0 1-.4 1-1s-.5-1-1-1zm-1 7h-3c-.6 0-1 .4-1 1s.4 1 1 1h3c.6 0 1-.4 1-1s-.5-1-1-1zm-7-2c-.6 0-1 .4-1 1v1h-10c-.6 0-1 .4-1 1s.4 1 1 1h10v1c0 .6.4 1 1 1s1-.4 1-1v-4c0-.6-.5-1-1-1z"/></svg>