<svg xmlns="http://www.w3.org/2000/svg" viewBox="0 0 24 24"><path d="M22.5 8.7c-.1-.4-.6-.7-1-.7-1.1 0-2-.9-2-2 0-.3.1-.6.2-.9.2-.4.1-.9-.2-1.2-1.3-1.2-2.9-2.1-4.5-2.5-.5-.1-.9.1-1.2.5-.4.7-1 1.1-1.8 1.1s-1.4-.4-1.8-1.1c-.2-.4-.7-.6-1.1-.5-1.7.5-3.3 1.3-4.6 2.5-.3.3-.4.8-.2 1.2.1.3.2.6.2.9 0 1.1-.9 2-2 2-.4 0-.9.3-1 .7C1.2 9.8 1 10.9 1 12c0 .7.1 1.5.2 2.2.1.5.6.8 1.1.8 1.1-.1 2.2.8 2.2 2 0 .5-.2.9-.5 1.3s-.3 1 0 1.3C5.4 21 7 22 8.9 22.5c.5.2 1.1-.1 1.2-.7.3-.8 1-1.4 1.9-1.4s1.6.6 1.9 1.4c.1.4.5.7 1 .7h.3C17 22 18.7 21 20 19.6c.4-.4.4-.9 0-1.3-.3-.4-.5-.8-.5-1.3 0-1.1.9-2 2-2h.2c.5 0 1-.3 1.1-.8.1-.7.2-1.5.2-2.2 0-1.1-.2-2.2-.5-3.3zM20.9 13c-1.9.3-3.4 1.9-3.4 4 0 .6.1 1.2.4 1.8-.8.7-1.6 1.2-2.5 1.6-.7-1.1-2-1.8-3.4-1.8s-2.7.7-3.4 1.8c-.9-.4-1.8-.9-2.5-1.6.3-.5.4-1.2.4-1.8 0-2-1.5-3.7-3.4-4-.1-.3-.1-.7-.1-1 0-.7.1-1.4.2-2.1C5.1 9.6 6.5 8 6.5 6c0-.3 0-.7-.1-1 .7-.6 1.6-1.1 2.5-1.5.8 1 1.9 1.5 3.1 1.5 1.2 0 2.3-.5 3.1-1.5.9.4 1.8.9 2.5 1.5-.1.3-.1.7-.1 1 0 1.9 1.4 3.6 3.3 3.9.2.7.2 1.4.2 2.1 0 .3 0 .7-.1 1z"/><path d="M12 7.5c-2.5 0-4.5 2-4.5 4.5s2 4.5 4.5 4.5 4.5-2 4.5-4.5-2-4.5-4.5-4.5zm0 7c-1.4 0-2.5-1.1-2.5-2.5s1.1-2.5 2.5-2.5 2.5 1.1 2.5 2.5-1.1 2.5-2.5 2.5z"/></svg>