<svg xmlns="http://www.w3.org/2000/svg" viewBox="0 0 24 24"><path d="M18.2 22.5c-.2 0-.3 0-.5-.1l-5.7-3-5.7 3c-.3.2-.7.2-1.1-.1-.3-.2-.5-.6-.4-1L6 15l-4.7-4.5C1 10.2.9 9.8 1 9.4c.1-.4.4-.6.8-.7l6.4-.9L11 2c.2-.3.5-.6.9-.6s.7.2.9.6l2.9 5.8 6.4.9c.4.1.7.3.8.7.1.4 0 .8-.3 1L18.1 15l1.1 6.3c.1.4-.1.8-.4 1-.2.1-.4.2-.6.2zM12 17.2c.2 0 .3 0 .5.1l4.4 2.3-.9-4.8c-.1-.3.1-.7.3-.9l3.6-3.5-4.9-.7c-.3 0-.6-.3-.8-.5L12 4.8 9.8 9.2c-.1.3-.4.5-.7.5l-4.9.7 3.6 3.5c.2.3.3.6.2.9l-.8 4.8 4.4-2.3c.1-.1.2-.1.4-.1zM8.9 8.7z"/></svg>