<svg xmlns="http://www.w3.org/2000/svg" viewBox="0 0 24 24"><path d="M18.7 18.8 2.9 3c-.4-.4-1-.4-1.4 0s-.4 1 0 1.4l3.1 3.1c-1.4 1.7-2.1 3.8-2.1 6 0 5.2 4.3 9.5 9.5 9.5 2.2 0 4.3-.7 6-2.1l1.5 1.5c.2.2.5.3.7.3s.5-.1.7-.3c.4-.4.4-1 0-1.4l-2.2-2.2zM12 21c-4.1 0-7.5-3.4-7.5-7.5 0-1.7.5-3.2 1.5-4.5l10.5 10.5c-1.3 1-2.8 1.5-4.5 1.5zm0-17c-1.2 0-2.3.2-3.4.6-.5.2-.8.8-.6 1.3.2.5.8.8 1.3.6.9-.3 1.8-.5 2.7-.5 4.1 0 7.5 3.4 7.5 7.5 0 1-.2 2-.6 2.9-.2.5 0 1.1.5 1.3.1.1.3.1.4.1.4 0 .8-.2.9-.6.5-1.2.8-2.4.8-3.7 0-2.6-1.1-5-2.8-6.8l1-1c.4-.4.4-1 0-1.4s-1-.4-1.4 0l-1.2 1.2C15.6 4.6 13.9 4 12 4zM8.5 3h7c.6 0 1-.4 1-1s-.4-1-1-1h-7c-.6 0-1 .4-1 1s.4 1 1 1z"/><path d="M11 9v.3c0 .6.4 1 1 1s1-.4 1-1V9c0-.6-.4-1-1-1s-1 .4-1 1z"/></svg>