<svg xmlns="http://www.w3.org/2000/svg" viewBox="0 0 24 24"><path d="m21.6 12 .9-2.8c.1-.4 0-.9-.4-1.1l-2.4-1.7-.9-2.8c-.1-.4-.5-.7-1-.7h-2.9l-2.4-1.7c-.4-.3-.8-.3-1.2 0L9 2.9H6.1c-.4 0-.8.3-1 .7l-.8 2.8-2.4 1.7c-.3.3-.5.7-.4 1.1l.9 2.8-.9 2.8c-.1.4 0 .9.4 1.1l2.4 1.7.9 2.8c.1.4.5.7 1 .7h2.9l2.4 1.7c.2.1.4.2.6.2s.4-.1.6-.2l2.4-1.7H18c.4 0 .8-.3 1-.7l.9-2.8 2.4-1.7c.4-.3.5-.7.4-1.1L21.6 12zm-2.1.3.8 2.4-2 1.5c-.2.1-.3.3-.4.5l-.8 2.4h-2.5c-.2 0-.4.1-.6.2l-2 1.5-2-1.5c-.2-.1-.4-.2-.6-.2H6.9l-.8-2.4c-.1-.2-.2-.4-.4-.5l-2-1.5.8-2.4c.1-.2.1-.4 0-.6l-.8-2.4 2-1.5c.2-.1.3-.3.4-.5l.8-2.4h2.5c.2 0 .4-.1.6-.2l2-1.5 2 1.5c.2.1.4.2.6.2h2.5l.8 2.4c.1.2.2.4.4.5l2 1.5-.8 2.4v.6z"/><path d="M15.3 8.8 11 13.1l-1.8-1.8c-.4-.4-1-.4-1.4 0s-.4 1 0 1.4l2.5 2.5c.2.2.5.3.7.3s.5-.1.7-.3l5-5c.4-.4.4-1 0-1.4s-1-.4-1.4 0z"/></svg>