<svg xmlns="http://www.w3.org/2000/svg" viewBox="0 0 24 24"><path d="M10.5 21H5V3h14v7.8c0 .6.4 1 1 1s1-.4 1-1V3c0-1.1-.9-2-2-2H5c-1.1 0-2 .9-2 2v18c0 1.1.9 2 2 2h5.5c.6 0 1-.4 1-1s-.4-1-1-1z"/><path d="M15.5 5h-7c-.6 0-1 .4-1 1s.4 1 1 1h7c.6 0 1-.4 1-1s-.4-1-1-1zm0 4h-7c-.6 0-1 .4-1 1s.4 1 1 1h7c.6 0 1-.4 1-1s-.4-1-1-1zm-4 4h-3c-.6 0-1 .4-1 1s.4 1 1 1h3c.6 0 1-.4 1-1s-.4-1-1-1zm8.9 5.8c.4-.5.6-1.1.6-1.8 0-1.7-1.3-3-3-3s-3 1.3-3 3c0 .7.2 1.3.6 1.8-1 .7-1.6 1.9-1.6 3.2 0 .6.4 1 1 1s1-.4 1-1c0-1.1.9-2 2-2s2 .9 2 2c0 .6.4 1 1 1s1-.4 1-1c0-1.3-.6-2.5-1.6-3.2zM18 18c-.6 0-1-.4-1-1s.4-1 1-1 1 .4 1 1-.4 1-1 1z"/></svg>