<svg version="1.1" xmlns="http://www.w3.org/2000/svg" x="0px" y="0px" viewBox="0 0 577 244">
<g id="图层_2">
	<polygon points="446,15 523,15 440,139 470,139 470,105 540,105 540,139 569,139 569,197 540,197 540,235 468,235 468,197 354,197
		354,149 	"/>
	<path d="M174.4,124.9c0-6.8,0.4-13.4,1.1-19.9H126v34H96l83-124h-77L10,149v48h114v38h72v-29.9c-6.1-9.2-10.9-19.5-14.5-30.9
		C176.8,159.1,174.4,142.5,174.4,124.9z"/>
	<path d="M343,145.3l39.8-58c-0.7-2.8-1.4-5.5-2.2-8.2c-4.3-14-10.6-26.2-19-36.6c-8.4-10.3-18.8-18.4-31.3-24.2
		c-12.5-5.8-27-8.7-43.5-8.7c-16.2,0-30.5,2.9-42.9,8.7c-12.4,5.8-22.9,13.9-31.5,24.2c-8.5,10.3-15,22.5-19.4,36.6
		c-4.4,14-6.6,29.3-6.6,45.8c0,16.5,2.2,31.7,6.6,45.8c4.4,14,10.9,26.2,19.4,36.5c8.5,10.3,19,18.3,31.5,24.2
		c12.4,5.9,26.8,8.8,42.9,8.8c16.5,0,31-2.9,43.5-8.8c11.7-5.5,21.6-13,29.7-22.4h-17V145.3z M306.4,166.2
		c-4.4,9.6-10.7,14.4-18.9,14.4c-8.3,0-14.6-4.8-19-14.4c-4.4-9.6-6.6-23.4-6.6-41.3c0-17.9,2.2-31.7,6.6-41.3
		c4.4-9.6,10.7-14.4,19-14.4c8.2,0,14.5,4.8,18.9,14.4c4.4,9.6,6.6,23.4,6.6,41.3C313,142.8,310.8,156.6,306.4,166.2z"/>
</g>
</svg>
