<svg xmlns="http://www.w3.org/2000/svg" viewBox="0 0 192 192">
<path d="M44.8,154.3c6.1,0,11-0.2,15.9,0.1c3.4,0.2,4.1-1.1,4.1-4.2c-0.1-17.5-0.1-35-0.1-52.6c0-1.2,0.1-2.4,0.2-4.1
	c3.7,0,7.2-0.1,10.7,0c2,0,3.1-0.5,3-2.7c-0.1-6.4,0-12.8,0-19.7c-4.6,0-8.9,0-13.2,0C63,58.4,68.3,56,81.7,57.1
	c0-6.2,0.1-12.4-0.1-18.6c0-0.6-1.5-1.6-2.3-1.6c-7.1,0.1-14.3-0.4-21.2,0.7c-14.2,2.3-20.8,10-22.2,24.3c-0.3,2.8-0.5,5.7-0.7,9
	c-3.8,0-7.5,0-11.6,0c0,4.1,0,7.8,0,11.4c0,3.5,0,7.1,0,11.1c3.9,0,7.5,0,11.5,0c0,17.1,0,33.8,0,51.7c-3.8-4-6.9-7.2-10-10.4
	c-5.4-5.4-10.9-10.8-16.2-16.3C-3,106.3-3,85.7,9,73.6C30.4,52,51.9,30.6,73.5,9.1C84.6-2,104.1-3.3,116,7.4
	c10.2,9.2,19.1,19.8,28.2,29.5c-0.6,0-2.4,0.2-4.6,0.3c0,13.6,0,27.1,0,41.7c-6-8.5-14.1-9.4-22.4-9.6c-8-0.1-15.9,0.9-22.3,6.4
	c-5.8,5-8.7,11.5-9.9,18.8c-2.4,15.2-2.9,30.5,2.5,45.3c2.6,7.1,7.8,11.8,15.1,13.9c8.4,2.5,17.1,3,25.4,0.2
	c4.4-1.5,8.1-4.9,12.3-7.6c2,1.9-2.4,9.7,6.7,7.8c-0.1,0.4-0.2,0.8-0.3,1.2c-1.8,1.6-3.6,3.2-5.4,4.9c-7.2,7.1-14.3,14.3-21.5,21.5
	c-13.8,13.8-34,13.7-47.8-0.1C63.2,172.8,54.4,164,44.8,154.3z"/>
<path d="M168.5,133.1c0-25,0-49,0-73.9c10,10.4,22.3,18.4,23.4,34.1c0.7,9.1-2,17.3-8,24.2
	C179.3,122.7,174.1,127.4,168.5,133.1z"/>
<path d="M139.4,125.6c-1.6,6.2-5.9,8.9-13,8.9c-6.1,0-10.4-2.7-11.9-8.6c-2.2-9-2.4-18.1,0.1-27c1.7-6,5.6-8.3,12.4-8.4
	c5.9-0.1,10.1,2.5,11.7,8.2C140.2,103.4,140.4,121.6,139.4,125.6z"/>
</svg>
